<svg xmlns="http://www.w3.org/2000/svg" viewBox="0 0 1043.56 346.5"><defs><style>.a{fill:#fdfdfd;}.b{fill:none;stroke:#fdfdfd;stroke-miterlimit:10;stroke-width:9px;}</style></defs><title>logo</title><path class="a" d="M1003.46,219.51l-106-83.29V90.29h0V65.2a16.11,16.11,0,0,0,.18-2.31,15.78,15.78,0,1,0-31.55,0,16.11,16.11,0,0,0,.19,2.31V90.29h0V136.2l-106,83.31a7.94,7.94,0,0,0-3,6.26v10.54a8,8,0,0,0,10.8,7.45l98.25-37.43v38.95l-34,34a8.07,8.07,0,0,0-2.35,5.64l0,5.7A8,8,0,0,0,840.88,298l41-16.4,41,16.4a8,8,0,0,0,10.91-7.39v-5.72a7.9,7.9,0,0,0-2.34-5.63l-34-34v-39l98.27,37.45a8,8,0,0,0,10.8-7.45V225.77A8,8,0,0,0,1003.46,219.51Z" transform="translate(-11.56)"/><circle class="b" cx="870.31" cy="173.25" r="168.75"/><path class="a" d="M42.3,207.42H11.71V80.16H42.3Z" transform="translate(-11.56)"/><path class="a" d="M98.07,183.82H158.9v23.6H59.78V191.25l60.66-87.4h-61V80.16h98.86V95.89Z" transform="translate(-11.56)"/><path class="a" d="M207.23,183.82h60.83v23.6H169V191.25l60.66-87.4h-61V80.16h98.85V95.89Z" transform="translate(-11.56)"/><path class="a" d="M314.65,207.42H284.06V80.16h30.59Z" transform="translate(-11.56)"/><path class="a" d="M438.93,164.33a46.4,46.4,0,0,1-7.16,23.47,43.2,43.2,0,0,1-18.4,15.77q-11.85,5.6-27.05,5.6-25.1,0-39.51-16.35t-14.42-46.15v-6.29q0-18.7,6.51-32.73A49.35,49.35,0,0,1,357.65,86q12.24-7.64,28.32-7.64,23.16,0,37.23,12.19t16,33.61H408.61q-.36-11.62-5.86-16.7T386,102.36q-11.46,0-16.78,8.57t-5.6,27.35v9q0,20.36,5.12,29.1t17.61,8.74q10.57,0,16.17-5t5.94-15.82Z" transform="translate(-11.56)"/><path class="a" d="M553.26,80.16v83.3q0,14.16-6,24.51a39,39,0,0,1-17.31,15.78q-11.28,5.42-26.66,5.42-23.25,0-36.62-12.06t-13.63-33V80.16h30.85v84.52q.52,20.9,19.4,20.89,9.53,0,14.42-5.25t4.9-17V80.16Z" transform="translate(-11.56)"/><path class="a" d="M603.08,164.24v43.18H572.4V80.16h50.78q14.6,0,25.83,5.38a40.54,40.54,0,0,1,17.39,15.29,41.78,41.78,0,0,1,6.16,22.51q0,18.61-13.33,29.76t-36.58,11.14Zm0-23.68h20.1q8.91,0,13.59-4.46t4.68-12.59q0-8.91-4.81-14.24t-13.11-5.42H603.08Z" transform="translate(-11.56)"/><path class="a" d="M37.73,264.84H24.34L22,272.41H11.56l14.87-40.52h9.18l15,40.52H40.09Zm-11-7.54h8.71L31,243.25Z" transform="translate(-11.56)"/><path class="a" d="M63.94,272.41H54.2V231.89h9.74Z" transform="translate(-11.56)"/><path class="a" d="M85.79,258.08H80.5v14.33H70.73V231.89h16q7.21,0,11.27,3.2a10.83,10.83,0,0,1,4.07,9,13.17,13.17,0,0,1-1.71,7,12.17,12.17,0,0,1-5.36,4.5L103.41,272v.41H92.94Zm-5.29-7.51h6.18a5.54,5.54,0,0,0,4.19-1.47A5.66,5.66,0,0,0,92.28,245a5.75,5.75,0,0,0-1.42-4.11,5.49,5.49,0,0,0-4.18-1.49H80.5Z" transform="translate(-11.56)"/><path class="a" d="M140.7,258.69a14.87,14.87,0,0,1-2.28,7.48,13.75,13.75,0,0,1-5.86,5A19.87,19.87,0,0,1,124,273q-8,0-12.58-5.2t-4.59-14.7v-2a24.61,24.61,0,0,1,2.07-10.43,15.75,15.75,0,0,1,6-6.9,16.68,16.68,0,0,1,9-2.43q7.38,0,11.85,3.88a15.33,15.33,0,0,1,5.1,10.7h-9.74q-.12-3.7-1.87-5.32T123.84,239a5.85,5.85,0,0,0-5.35,2.73q-1.69,2.73-1.78,8.71v2.87c0,4.32.55,7.41,1.63,9.26s3,2.79,5.61,2.79a7.51,7.51,0,0,0,5.15-1.59q1.78-1.59,1.89-5Z" transform="translate(-11.56)"/><path class="a" d="M160.38,258.08h-5.29v14.33h-9.77V231.89h16q7.22,0,11.27,3.2a10.83,10.83,0,0,1,4.07,9,13.17,13.17,0,0,1-1.71,7,12.17,12.17,0,0,1-5.36,4.5L178,272v.41H167.53Zm-5.29-7.51h6.18a5.54,5.54,0,0,0,4.19-1.47,5.66,5.66,0,0,0,1.41-4.09,5.75,5.75,0,0,0-1.42-4.11,5.49,5.49,0,0,0-4.18-1.49h-6.18Z" transform="translate(-11.56)"/><path class="a" d="M205.53,264.84H192.14l-2.34,7.57H179.36l14.87-40.52h9.18l15,40.52H207.89Zm-11.05-7.54h8.71l-4.37-14.05Z" transform="translate(-11.56)"/><path class="a" d="M246.86,256.27H231.1v16.14h-9.77V231.89h27.11v7.54H231.1v9.33h15.76Z" transform="translate(-11.56)"/><path class="a" d="M284.87,239.43H272.71v33h-9.77v-33H251v-7.54h33.87Z" transform="translate(-11.56)"/><path class="a" d="M322.42,261.64a4,4,0,0,0-1.52-3.34,18.88,18.88,0,0,0-5.33-2.47,51.55,51.55,0,0,1-6.23-2.48q-7.87-3.87-7.88-10.63a9.55,9.55,0,0,1,2-5.94,12.62,12.62,0,0,1,5.56-4,21.49,21.49,0,0,1,8.07-1.44,18.87,18.87,0,0,1,7.83,1.56,12.43,12.43,0,0,1,5.39,4.44,11.6,11.6,0,0,1,1.92,6.58h-9.74a4.91,4.91,0,0,0-1.52-3.84,5.9,5.9,0,0,0-4.1-1.36,6.67,6.67,0,0,0-4.14,1.15,3.41,3.41,0,0,0,.16,5.77,21.17,21.17,0,0,0,5.87,2.61,35.94,35.94,0,0,1,6.9,2.91q6.57,3.78,6.57,10.44a9.9,9.9,0,0,1-4,8.35q-4,3-11,3a21.75,21.75,0,0,1-8.92-1.77,13.32,13.32,0,0,1-6-4.84,12.58,12.58,0,0,1-2-7.08H310a6.23,6.23,0,0,0,1.69,4.8q1.68,1.55,5.47,1.54a6.23,6.23,0,0,0,3.82-1A3.44,3.44,0,0,0,322.42,261.64Z" transform="translate(-11.56)"/><path class="a" d="M347,258.67v13.74H337.2V231.89h16.17a18.81,18.81,0,0,1,8.22,1.71,12.91,12.91,0,0,1,5.54,4.87,13.31,13.31,0,0,1,2,7.17,11.74,11.74,0,0,1-4.24,9.48q-4.25,3.54-11.65,3.55Zm0-7.55h6.4a6,6,0,0,0,4.33-1.42,5.26,5.26,0,0,0,1.49-4,6.51,6.51,0,0,0-1.53-4.54,5.46,5.46,0,0,0-4.18-1.73H347Z" transform="translate(-11.56)"/><path class="a" d="M392.36,264.84H379l-2.33,7.57H366.2l14.86-40.52h9.19l15,40.52H394.73Zm-11.05-7.54H390l-4.37-14.05Z" transform="translate(-11.56)"/><path class="a" d="M423.23,258.08h-5.29v14.33h-9.77V231.89h15.95q7.2,0,11.27,3.2a10.82,10.82,0,0,1,4.06,9,13.17,13.17,0,0,1-1.71,7,12.12,12.12,0,0,1-5.36,4.5L440.85,272v.41H430.38Zm-5.29-7.51h6.18a5.55,5.55,0,0,0,4.19-1.47,6.67,6.67,0,0,0,0-8.2,5.45,5.45,0,0,0-4.17-1.49h-6.18Z" transform="translate(-11.56)"/><path class="a" d="M470.49,255.21H455.12v9.69h18.15v7.51H445.35V231.89h28v7.54H455.12V248h15.37Z" transform="translate(-11.56)"/><path class="a" d="M501.21,258.67v13.74h-9.77V231.89h16.17a18.89,18.89,0,0,1,8.23,1.71,13,13,0,0,1,5.54,4.87,13.31,13.31,0,0,1,2,7.17,11.77,11.77,0,0,1-4.24,9.48q-4.25,3.54-11.65,3.55Zm0-7.55h6.4a6,6,0,0,0,4.33-1.42,5.26,5.26,0,0,0,1.49-4,6.51,6.51,0,0,0-1.53-4.54,5.43,5.43,0,0,0-4.17-1.73h-6.52Z" transform="translate(-11.56)"/><path class="a" d="M546.61,264.84H533.22l-2.34,7.57H520.44l14.87-40.52h9.18l15,40.52H549Zm-11.05-7.54h8.71l-4.37-14.05Z" transform="translate(-11.56)"/><path class="a" d="M577.47,258.08h-5.29v14.33h-9.76V231.89h15.94q7.21,0,11.28,3.2a10.85,10.85,0,0,1,4.06,9,13.17,13.17,0,0,1-1.71,7,12.17,12.17,0,0,1-5.36,4.5L595.09,272v.41H584.63Zm-5.29-7.51h6.18a5.54,5.54,0,0,0,4.19-1.47A5.66,5.66,0,0,0,584,245a5.75,5.75,0,0,0-1.42-4.11,5.49,5.49,0,0,0-4.18-1.49h-6.18Z" transform="translate(-11.56)"/><path class="a" d="M630,239.43H617.86v33h-9.77v-33H596.15v-7.54H630Z" transform="translate(-11.56)"/><path class="a" d="M654.6,261.64a4,4,0,0,0-1.52-3.34,19,19,0,0,0-5.33-2.47,52.46,52.46,0,0,1-6.24-2.48q-7.87-3.87-7.87-10.63a9.49,9.49,0,0,1,2-5.94,12.65,12.65,0,0,1,5.55-4,21.56,21.56,0,0,1,8.07-1.44,18.89,18.89,0,0,1,7.84,1.56,12.4,12.4,0,0,1,5.38,4.44,11.6,11.6,0,0,1,1.92,6.58h-9.74a4.9,4.9,0,0,0-1.51-3.84,5.93,5.93,0,0,0-4.11-1.36,6.66,6.66,0,0,0-4.13,1.15,3.55,3.55,0,0,0-1.52,2.94,3.59,3.59,0,0,0,1.67,2.83,21.17,21.17,0,0,0,5.87,2.61,36.06,36.06,0,0,1,6.91,2.91q6.56,3.78,6.56,10.44a9.9,9.9,0,0,1-4,8.35q-4,3-11,3a21.82,21.82,0,0,1-8.92-1.77,13.43,13.43,0,0,1-6-4.84,12.65,12.65,0,0,1-2-7.08h9.8a6.22,6.22,0,0,0,1.68,4.8q1.7,1.55,5.47,1.54a6.26,6.26,0,0,0,3.83-1A3.44,3.44,0,0,0,654.6,261.64Z" transform="translate(-11.56)"/></svg>